# xmcd
# Track frame offsets:
# 150
# 13917
# 27464
# 41366
# 55182
# 70358
# 81758
# 98960
# 112160
# 126675
# 138306
# 152248
# 168023
# 182583
# 196873
# 209790
# 221936
# 228863
# 240391
# 259440
# 279766
# 290163
# 300090
# 313532
# 328600
#
# Disc length: 4587 seconds
# Revision: 6
# Processed by: cddbd v1.5.2PL0 Copyright (c) Steve Scherf et al.
# Submitted via: VisiTrax 2.11.2.271 - For more info visit www.synapsa.com
#
DISCID=7411e919
DTITLE=Slim Dusty - The Very Best Of Slim Dusty
DYEAR=2011
DGENRE=Australian Country
TTITLE0=Looking Forward Looking Back
TTITLE1=A Pub With No Beer
TTITLE2=Lights On The Hill
TTITLE3=The Biggest Disappointment
TTITLE4=Three Rivers Hotel
TTITLE5=Ringer From The Top End
TTITLE6=Where Country Is
TTITLE7=Leave Him In The Long Yard
TTITLE8=Plains Of Peppimenarti
TTITLE9=Duncan
TTITLE10=Charleville
TTITLE11=Indian Pacific
TTITLE12=Sweeney (Live)
TTITLE13=G'Day, G'Day
TTITLE14=Walk A Country Mile
TTITLE15=When The Rain Tumbles Down In July
TTITLE16=I'm Going Back To Yarrawonga (Live)
TTITLE17=Old Time Country Halls
TTITLE18=Camooweal
TTITLE19=We've Done Us Proud
TTITLE20=Country Revival
TTITLE21=Cunnamulla Fella
TTITLE22=By A Fire Of Gidgee Coal
TTITLE23=Losin' My Blues Tonight (Live)
TTITLE24=Waltzing Matilda
EXTD=2011 EMI Music Australia [Slim Dusty Enterprises Pty Limited]
EXTT0=
EXTT1=
EXTT2=
EXTT3=
EXTT4=
EXTT5=
EXTT6=
EXTT7=
EXTT8=
EXTT9=
EXTT10=
EXTT11=
EXTT12=
EXTT13=
EXTT14=
EXTT15=
EXTT16=
EXTT17=
EXTT18=
EXTT19=
EXTT20=
EXTT21=
EXTT22=
EXTT23=
EXTT24=
PLAYORDER=
